<svg xmlns="http://www.w3.org/2000/svg" viewBox="0 0 64 64" role="img" aria-label="Athena carregando"><circle cx="32" cy="32" r="27" fill="none" stroke="#143A2D" stroke-width="4"/><path d="M32 5a27 27 0 0 1 24 15" fill="none" stroke="#00E88F" stroke-width="4" stroke-linecap="round"/><path fill="#00E88F" d="M11 47c1-17 2-27 13-35 8-6 20-5 29 1l-12 5c7 3 10 8 11 15l-9-4v10l-8 4v8H23l4-9c-8-4-11-11-11-19-3 8-4 15-5 24Z"/><path fill="#fff" d="m34 23 9 2-5 4 5 4-8 2-4-6Z"/><path fill="#007A4A" d="M20 49c9-4 19-3 29 2-11-1-19 1-27 6Z"/></svg>